<svg data-v-0dd9719b="" version="1.0" xmlns="http://www.w3.org/2000/svg" xmlns:xlink="http://www.w3.org/1999/xlink" preserveAspectRatio="xMidYMid meet" color-interpolation-filters="sRGB" style="margin: auto;" viewBox="0 0 244 70">
   <rect data-v-0dd9719b="" x="0" y="0" width="100%" height="100%" fill="#fff" fill-opacity="1" class="background"></rect>
   <rect data-v-0dd9719b="" x="0" y="0" width="100%" height="100%" fill="url(#watermark)" fill-opacity="1" class="watermarklayer"></rect>
   <g data-v-0dd9719b="" fill="#ff9800" class="icon-text-wrapper icon-svg-group iconsvg">
      <g class="iconsvg-imagesvg" transform="translate(0,0)">
         <g>
            <rect fill="#ff9800" fill-opacity="0" stroke-width="2" x="0" y="0" width="60" height="76.93787266782073" class="image-rect"></rect>
            <svg x="0" y="0" width="60" height="76.93787266782073" filtersec="colorsb7176165795" class="image-svg-svg primary" style="overflow: visible;">
               <svg viewBox="0 0 147.9600067138672 189.72900390625" xmlns="http://www.w3.org/2000/svg">
                  <path fill="none" pointer-events="none" d="M0 0h147.96v189.729H0z"></path>
                  <path d="M138.98 44.864h-130l40-40h50z" class="st7" opacity=".8" fill="#ff9800"></path>
                  <path d="M98.98 4.864v130l40-40v-50z" class="st7" opacity=".8" fill="#ff9800"></path>
                  <path d="M8.98 94.864h130l-40 40h-90z" class="st7" opacity=".8" fill="#ff9800"></path>
                  <path d="M8.98 44.864v140h40v-180z" class="st7" opacity=".8" fill="#ff9800"></path>
               </svg>
            </svg>
         </g>
      </g>
      <g transform="translate(67,16.608936309814453)">
         <g data-gra="path-name" fill-rule="" class="tp-name iconsvg-namesvg">
            <g transform="scale(1)">
               <g>
                  <path d="M22.86-29.98C22.86-37.8 20.72-43.07 13.29-43.07L1.91-43.07 1.91 0 10.38 0 10.38-17.05 13.89-17.05C21.22-17.05 22.86-22.24 22.86-29.98ZM14.34-30.13C14.34-26.81 14.12-24.82 10.88-24.82L10.38-24.82 10.38-35.25 11.33-35.25C14.08-35.25 14.34-33.19 14.34-30.13ZM32.49 0.4C36 0.4 37.08-1.17 38.16-3.91L38.16 0 46.93 0 46.93-36.7 38.21-36.7 38.16-11.13 38.16-10.83C38.16-8.54 38.15-6.47 36.1-6.47 34.54-6.47 34.14-7.51 34.14-9.25L34.14-36.7 25.32-36.7 25.32-9.38C25.32-3.34 26.66 0.4 32.49 0.4ZM61.42-30.33C62.84-30.33 63.38-28.89 63.38-27.43L63.38 0 72 0 72-28.33C72-33.65 69.91-37.1 64.73-37.1 61.49-37.1 59.88-34.76 59.21-32.04L59.21-36.7 50.44-36.7 50.44 0 59.21 0 59.21-25.82C59.21-28.07 59.38-30.33 61.42-30.33ZM75.46 0L84.13 0 84.13-17.3 89.6 0 98.92 0 91.91-20.76 97.42-36.7 88.35-36.7 84.13-24.07 84.13-43.32 75.46-43.32ZM107.65 0.4C109.18 0.4 111.49 0.05 112.61-0.25L112.61-6.27C112.24-6.27 111.53-6.17 111.06-6.17 110.09-6.17 110.11-6.95 110.11-8.02L110.11-28.63 112.61-28.63 112.61-35.3 110.11-35.3 110.11-43.07 101.58-43.07 101.58-35.3 99.13-35.3 99.13-28.63 101.58-28.63 101.58-5.72C101.58-1.3 103.14 0.4 107.65 0.4ZM122.04 0.4C125.05 0.4 126.77-1.81 127.5-4.36L127.5 0 136.23 0 136.23-27.98C136.23-33.88 131.89-37.1 125.95-37.1 118.47-37.1 115.17-34.46 115.17-27.08L115.17-25.87 123.69-25.87 123.69-28.08C123.69-29.3 124.34-30.48 125.45-30.48 126.79-30.48 127.4-29.02 127.4-27.48L127.4-23.72 125-22.91C122.26-22.04 120.22-21.25 118.88-20.53 115.79-18.87 114.62-15.66 114.62-10.53 114.62-4.13 115.93 0.4 122.04 0.4ZM125.5-6.42C124.19-6.42 123.54-7.5 123.54-9.68L123.54-14.39C123.54-17.42 125.01-18.6 127.35-19.5L127.35-9.28C127.35-7.81 126.92-6.42 125.5-6.42ZM154.68-29.83L154.68-37.15C151.28-37.15 149.18-35.34 148.36-32.64L148.36-36.7 139.59-36.7 139.59 0 148.36 0 148.36-28.08C148.36-29.28 153.27-29.83 154.68-29.83ZM167.52-37.1C160.66-37.1 156.53-32.6 156.53-25.72L156.53-10.98C156.53-3.39 160.19 0.4 167.52 0.4 174.84 0.4 178.5-3.39 178.5-10.98L178.5-25.72C178.5-32.6 174.37-37.1 167.52-37.1ZM167.52-6.37C166-6.37 165.46-7.59 165.46-9.18L165.46-27.13C165.46-29.26 166.14-30.33 167.52-30.33 168.89-30.33 169.57-29.26 169.57-27.13L169.57-9.18C169.57-7.59 169.03-6.37 167.52-6.37Z" transform="translate(-1.9100000858306885, 43.31999969482422)"></path>
               </g>
            </g>
         </g>
      </g>
   </g>
   <defs v-gra="od"></defs>
</svg>
